<svg width="19" height="19" viewBox="0 0 19 19" fill="none" xmlns="http://www.w3.org/2000/svg">
<path d="M9.29492 6.76172V11.2617M11.5449 9.01172H7.04492M16.0449 9.01172C16.0449 9.89814 15.8703 10.7759 15.5311 11.5948C15.1919 12.4138 14.6947 13.1579 14.0679 13.7847C13.4411 14.4115 12.697 14.9087 11.878 15.2479C11.0591 15.5871 10.1813 15.7617 9.29492 15.7617C8.4085 15.7617 7.53076 15.5871 6.71181 15.2479C5.89286 14.9087 5.14875 14.4115 4.52195 13.7847C3.89516 13.1579 3.39795 12.4138 3.05873 11.5948C2.71952 10.7759 2.54492 9.89814 2.54492 9.01172C2.54492 7.22151 3.25608 5.50462 4.52195 4.23875C5.78782 2.97288 7.50471 2.26172 9.29492 2.26172C11.0851 2.26172 12.802 2.97288 14.0679 4.23875C15.3338 5.50462 16.0449 7.22151 16.0449 9.01172Z" stroke="white" stroke-width="1.5" stroke-linecap="round" stroke-linejoin="round"/>
</svg>
