<svg width="13" height="13" viewBox="0 0 13 13" fill="none" xmlns="http://www.w3.org/2000/svg">
<path d="M8.86423 4.68642H11.3602L9.76973 3.09492C9.25767 2.58286 8.61983 2.21462 7.92033 2.02722C7.22083 1.83983 6.48433 1.83988 5.78486 2.02738C5.08539 2.21488 4.44761 2.58321 3.93563 3.09536C3.42364 3.6075 3.05551 4.24539 2.86823 4.94492M2.34523 9.83442V7.33842M2.34523 7.33842H4.84123M2.34523 7.33842L3.93523 8.92992C4.44728 9.44198 5.08512 9.81022 5.78462 9.99762C6.48412 10.185 7.22062 10.185 7.92009 9.99746C8.61956 9.80996 9.25734 9.44163 9.76933 8.92949C10.2813 8.41735 10.6494 7.77945 10.8367 7.07992M11.3602 2.19042V4.68542" stroke="white" stroke-width="0.75" stroke-linecap="round" stroke-linejoin="round"/>
</svg>
