<svg width="21" height="21" viewBox="0 0 21 21" fill="none" xmlns="http://www.w3.org/2000/svg">
<path d="M12.1314 6.86054L11.8693 13.7834M8.24203 13.7834L7.97991 6.86054M15.5314 4.39137C15.7905 4.43137 16.0481 4.47368 16.3057 4.51906M15.5314 4.39137L14.7223 15.0703C14.6893 15.5051 14.4959 15.9112 14.1807 16.2074C13.8655 16.5036 13.4518 16.6681 13.0223 16.668H7.089C6.65952 16.6681 6.24583 16.5036 5.93065 16.2074C5.61546 15.9112 5.42202 15.5051 5.389 15.0703L4.57991 4.39137M15.5314 4.39137C14.6571 4.25716 13.7782 4.1553 12.8966 4.086M4.57991 4.39137C4.32082 4.4306 4.06324 4.47291 3.80566 4.51829M4.57991 4.39137C5.45425 4.25716 6.33311 4.1553 7.21475 4.086M12.8966 4.086V3.3814C12.8966 2.47373 12.2072 1.71683 11.3132 1.68837C10.4751 1.66117 9.63626 1.66117 8.79809 1.68837C7.90415 1.71683 7.21475 2.4745 7.21475 3.3814V4.086M12.8966 4.086C11.0055 3.9376 9.10587 3.9376 7.21475 4.086" stroke="white" stroke-width="1.25" stroke-linecap="round" stroke-linejoin="round"/>
</svg>
