<svg width="21" height="21" viewBox="0 0 21 21" fill="none" xmlns="http://www.w3.org/2000/svg">
<path fill-rule="evenodd" clip-rule="evenodd" d="M12.2107 3.1838C13.1049 2.28817 14.5554 2.28762 15.4503 3.18257L17.5269 5.25912C18.4142 6.14643 18.4234 7.5829 17.5475 8.48154L9.85327 16.3759C9.26533 16.9792 8.45894 17.3193 7.61692 17.3193L5.32346 17.3192C4.25742 17.3191 3.40608 16.4305 3.45091 15.3646L3.54937 13.0237C3.58229 12.2412 3.90752 11.4995 4.46072 10.9455L12.2107 3.1838ZM14.5671 4.06713C14.1603 3.66033 13.501 3.66058 13.0945 4.06768L11.7086 5.45569L15.2751 9.02218L16.6531 7.60841C17.0512 7.19994 17.047 6.547 16.6437 6.14367L14.5671 4.06713ZM5.3446 11.8294L10.8254 6.34024L14.4026 9.9174L8.95878 15.5028C8.60602 15.8647 8.12219 16.0688 7.61697 16.0688L5.32352 16.0687C4.96817 16.0687 4.68439 15.7725 4.69933 15.4172L4.79779 13.0763C4.81754 12.6068 5.01268 12.1618 5.3446 11.8294ZM18.0451 17.2578C18.3901 17.2578 18.6698 16.9778 18.6698 16.6325C18.6698 16.2872 18.3901 16.0073 18.0451 16.0073H12.9436C12.5986 16.0073 12.3189 16.2872 12.3189 16.6325C12.3189 16.9778 12.5986 17.2578 12.9436 17.2578H18.0451Z" fill="white"/>
</svg>
