<svg width="25" height="25" viewBox="0 0 25 25" fill="none" xmlns="http://www.w3.org/2000/svg">
<path fill-rule="evenodd" clip-rule="evenodd" d="M13.9136 3.81822C14.9868 2.74346 16.7273 2.7428 17.8012 3.81674L20.2931 6.3086C21.3579 7.37338 21.3689 9.09714 20.3179 10.1755L11.0848 19.6488C10.3792 20.3726 9.41157 20.7808 8.40114 20.7808L5.64899 20.7807C4.36975 20.7806 3.34813 19.7142 3.40193 18.4351L3.52009 15.6261C3.55959 14.6871 3.94987 13.7971 4.6137 13.1322L13.9136 3.81822ZM16.7414 4.87821C16.2532 4.39005 15.4621 4.39035 14.9743 4.87888L13.3112 6.54448L17.591 10.8243L19.2445 9.12775C19.7223 8.63758 19.7172 7.85405 19.2332 7.37006L16.7414 4.87821ZM5.67436 14.1929L12.2513 7.60594L16.5439 11.8985L10.0114 18.601C9.58806 19.0353 9.00746 19.2802 8.4012 19.2802L5.64906 19.2801C5.22264 19.2801 4.8821 18.9246 4.90004 18.4983L5.01819 15.6892C5.04189 15.1258 5.27606 14.5918 5.67436 14.1929ZM20.9147 20.7075C21.3288 20.7075 21.6644 20.3716 21.6644 19.9572C21.6644 19.5428 21.3288 19.2069 20.9147 19.2069H14.793C14.379 19.2069 14.0433 19.5428 14.0433 19.9572C14.0433 20.3716 14.379 20.7075 14.793 20.7075H20.9147Z" fill="#090909"/>
</svg>
