<svg width="19" height="20" viewBox="0 0 19 20" fill="none" xmlns="http://www.w3.org/2000/svg">
<path d="M8.18569 5.36006H15.7438M8.18569 5.36006C8.18569 5.66845 8.06319 5.96421 7.84512 6.18228C7.62705 6.40034 7.33129 6.52285 7.0229 6.52285C6.71451 6.52285 6.41875 6.40034 6.20068 6.18228C5.98262 5.96421 5.86011 5.66845 5.86011 5.36006M8.18569 5.36006C8.18569 5.05167 8.06319 4.75591 7.84512 4.53784C7.62705 4.31977 7.33129 4.19727 7.0229 4.19727C6.71451 4.19727 6.41875 4.31977 6.20068 4.53784C5.98262 4.75591 5.86011 5.05167 5.86011 5.36006M5.86011 5.36006H2.95312M8.18569 14.6624H15.7438M8.18569 14.6624C8.18569 14.9708 8.06319 15.2666 7.84512 15.4846C7.62705 15.7027 7.33129 15.8252 7.0229 15.8252C6.71451 15.8252 6.41875 15.7027 6.20068 15.4846C5.98262 15.2666 5.86011 14.9708 5.86011 14.6624M8.18569 14.6624C8.18569 14.354 8.06319 14.0582 7.84512 13.8402C7.62705 13.6221 7.33129 13.4996 7.0229 13.4996C6.71451 13.4996 6.41875 13.6221 6.20068 13.8402C5.98262 14.0582 5.86011 14.354 5.86011 14.6624M5.86011 14.6624H2.95312M12.8369 10.0112H15.7438M12.8369 10.0112C12.8369 10.3196 12.7144 10.6154 12.4963 10.8334C12.2782 11.0515 11.9825 11.174 11.6741 11.174C11.3657 11.174 11.0699 11.0515 10.8519 10.8334C10.6338 10.6154 10.5113 10.3196 10.5113 10.0112M12.8369 10.0112C12.8369 9.70284 12.7144 9.40708 12.4963 9.18901C12.2782 8.97095 11.9825 8.84844 11.6741 8.84844C11.3657 8.84844 11.0699 8.97095 10.8519 9.18901C10.6338 9.40708 10.5113 9.70284 10.5113 10.0112M10.5113 10.0112H2.95312" stroke="white" stroke-width="1.16279" stroke-linecap="round" stroke-linejoin="round"/>
</svg>
