<svg width="19" height="19" viewBox="0 0 19 19" fill="none" xmlns="http://www.w3.org/2000/svg">
<path d="M12.1069 15.6035V14.1035C12.1069 13.3079 11.7909 12.5448 11.2283 11.9822C10.6656 11.4196 9.90258 11.1035 9.10693 11.1035H4.60693C3.81128 11.1035 3.04822 11.4196 2.48561 11.9822C1.923 12.5448 1.60693 13.3079 1.60693 14.1035V15.6035" stroke="#C7C7CC" stroke-width="0.917361" stroke-linecap="round" stroke-linejoin="round"/>
<path d="M6.85693 8.10352C8.51379 8.10352 9.85693 6.76037 9.85693 5.10352C9.85693 3.44666 8.51379 2.10352 6.85693 2.10352C5.20008 2.10352 3.85693 3.44666 3.85693 5.10352C3.85693 6.76037 5.20008 8.10352 6.85693 8.10352Z" stroke="#C7C7CC" stroke-width="0.917361" stroke-linecap="round" stroke-linejoin="round"/>
<path d="M16.6074 15.6037V14.1037C16.6069 13.439 16.3857 12.7933 15.9784 12.2679C15.5712 11.7426 15.001 11.3673 14.3574 11.2012" stroke="#C7C7CC" stroke-width="0.917361" stroke-linecap="round" stroke-linejoin="round"/>
<path d="M12.1074 2.20117C12.7527 2.3664 13.3247 2.7417 13.7332 3.2679C14.1416 3.79411 14.3633 4.44129 14.3633 5.10742C14.3633 5.77355 14.1416 6.42073 13.7332 6.94694C13.3247 7.47315 12.7527 7.84845 12.1074 8.01367" stroke="#C7C7CC" stroke-width="0.917361" stroke-linecap="round" stroke-linejoin="round"/>
</svg>
