<svg width="19" height="19" viewBox="0 0 19 19" fill="none" xmlns="http://www.w3.org/2000/svg">
<g clip-path="url(#clip0_8001_2117)">
<path d="M6.85642 16.6582L6.66845 14.0265C6.56738 12.6117 7.68794 11.4082 9.10642 11.4082C10.5249 11.4082 11.6455 12.6117 11.5444 14.0265L11.3564 16.6582" stroke="white" stroke-width="1.37604"/>
<path d="M1.87145 10.0683C1.60669 8.34535 1.47431 7.48393 1.80004 6.72024C2.12576 5.95654 2.84843 5.43403 4.29377 4.389L5.37365 3.6082C7.17163 2.30821 8.0706 1.6582 9.10793 1.6582C10.1452 1.6582 11.0442 2.30821 12.8422 3.6082L13.922 4.389C15.3674 5.43403 16.0901 5.95654 16.4158 6.72024C16.7415 7.48393 16.6091 8.34535 16.3444 10.0683L16.1186 11.5375C15.7433 13.9799 15.5556 15.2011 14.6797 15.9297C13.8038 16.6582 12.5231 16.6582 9.96202 16.6582H8.25382C5.69266 16.6582 4.41209 16.6582 3.53616 15.9297C2.66023 15.2011 2.47256 13.9799 2.09723 11.5375L1.87145 10.0683Z" stroke="white" stroke-width="1.37604" stroke-linejoin="round"/>
</g>
<defs>
<clipPath id="clip0_8001_2117">
<rect width="18" height="18" fill="white" transform="translate(0.107422 0.447266)"/>
</clipPath>
</defs>
</svg>
