<svg width="41" height="41" viewBox="0 0 41 41" fill="none" xmlns="http://www.w3.org/2000/svg">
<g filter="url(#filter0_di_8008_3065)">
<g clip-path="url(#clip0_8008_3065)">
<rect x="4.3999" y="6.51172" width="24" height="24" rx="6" fill="url(#paint0_linear_8008_3065)" fill-opacity="0.04" shape-rendering="crispEdges"/>
<g style="mix-blend-mode:plus-lighter" opacity="0.5" filter="url(#filter1_f_8008_3065)">
<rect x="9.3999" y="11.5117" width="14" height="14" rx="3" fill="url(#paint1_radial_8008_3065)"/>
<rect x="9.3999" y="11.5117" width="14" height="14" rx="3" fill="url(#paint2_radial_8008_3065)"/>
<rect x="9.3999" y="11.5117" width="14" height="14" rx="3" fill="url(#paint3_radial_8008_3065)"/>
</g>
<rect x="9.3999" y="11.5117" width="14" height="14" rx="3" fill="url(#paint4_radial_8008_3065)"/>
<rect x="9.3999" y="11.5117" width="14" height="14" rx="3" fill="url(#paint5_radial_8008_3065)"/>
<rect x="9.3999" y="11.5117" width="14" height="14" rx="3" fill="url(#paint6_radial_8008_3065)"/>
<path d="M19.8999 15.7617C19.8999 16.1759 19.5641 16.5117 19.1499 16.5117C18.7357 16.5117 18.3999 16.1759 18.3999 15.7617C18.3999 15.3475 18.7357 15.0117 19.1499 15.0117C19.5641 15.0117 19.8999 15.3475 19.8999 15.7617Z" fill="white"/>
<path fill-rule="evenodd" clip-rule="evenodd" d="M16.3999 21.0117C17.7806 21.0117 18.8999 19.8924 18.8999 18.5117C18.8999 17.131 17.7806 16.0117 16.3999 16.0117C15.0192 16.0117 13.8999 17.131 13.8999 18.5117C13.8999 19.8924 15.0192 21.0117 16.3999 21.0117ZM16.3999 20.0117C17.2283 20.0117 17.8999 19.3401 17.8999 18.5117C17.8999 17.6833 17.2283 17.0117 16.3999 17.0117C15.5715 17.0117 14.8999 17.6833 14.8999 18.5117C14.8999 19.3401 15.5715 20.0117 16.3999 20.0117Z" fill="white"/>
<path fill-rule="evenodd" clip-rule="evenodd" d="M11.3999 18.3117C11.3999 16.6316 11.3999 15.7915 11.7269 15.1497C12.0145 14.5853 12.4734 14.1263 13.0379 13.8387C13.6797 13.5117 14.5197 13.5117 16.1999 13.5117H16.5999C18.2801 13.5117 19.1201 13.5117 19.7619 13.8387C20.3264 14.1263 20.7853 14.5853 21.0729 15.1497C21.3999 15.7915 21.3999 16.6316 21.3999 18.3117V18.7117C21.3999 20.3919 21.3999 21.232 21.0729 21.8737C20.7853 22.4382 20.3264 22.8971 19.7619 23.1847C19.1201 23.5117 18.2801 23.5117 16.5999 23.5117H16.1999C14.5197 23.5117 13.6797 23.5117 13.0379 23.1847C12.4734 22.8971 12.0145 22.4382 11.7269 21.8737C11.3999 21.232 11.3999 20.3919 11.3999 18.7117V18.3117ZM16.1999 14.5117H16.5999C17.4565 14.5117 18.0388 14.5125 18.4889 14.5493C18.9273 14.5851 19.1515 14.65 19.3079 14.7297C19.6842 14.9215 19.9902 15.2274 20.1819 15.6037C20.2616 15.7601 20.3265 15.9843 20.3624 16.4228C20.3991 16.8728 20.3999 17.4551 20.3999 18.3117V18.7117C20.3999 19.5683 20.3991 20.1506 20.3624 20.6007C20.3265 21.0391 20.2616 21.2633 20.1819 21.4197C19.9902 21.796 19.6842 22.102 19.3079 22.2937C19.1515 22.3734 18.9273 22.4383 18.4889 22.4742C18.0388 22.5109 17.4565 22.5117 16.5999 22.5117H16.1999C15.3433 22.5117 14.761 22.5109 14.3109 22.4742C13.8725 22.4383 13.6483 22.3734 13.4919 22.2937C13.1156 22.102 12.8096 21.796 12.6179 21.4197C12.5382 21.2633 12.4733 21.0391 12.4375 20.6007C12.4007 20.1506 12.3999 19.5683 12.3999 18.7117V18.3117C12.3999 17.4551 12.4007 16.8728 12.4375 16.4228C12.4733 15.9843 12.5382 15.7601 12.6179 15.6037C12.8096 15.2274 13.1156 14.9215 13.4919 14.7297C13.6483 14.65 13.8725 14.5851 14.3109 14.5493C14.761 14.5125 15.3433 14.5117 16.1999 14.5117Z" fill="white"/>
<g filter="url(#filter2_f_8008_3065)">
<ellipse cx="16.6499" cy="30.2617" rx="5.75" ry="3.25" fill="#D4467E"/>
</g>
</g>
<rect x="4.3999" y="6.51172" width="24" height="24" rx="6" stroke="url(#paint7_linear_8008_3065)" stroke-opacity="0.5" stroke-width="0.4" shape-rendering="crispEdges"/>
</g>
<defs>
<filter id="filter0_di_8008_3065" x="-5.80029" y="-3.6875" width="46.4004" height="44.3984" filterUnits="userSpaceOnUse" color-interpolation-filters="sRGB">
<feFlood flood-opacity="0" result="BackgroundImageFix"/>
<feColorMatrix in="SourceAlpha" type="matrix" values="0 0 0 0 0 0 0 0 0 0 0 0 0 0 0 0 0 0 127 0" result="hardAlpha"/>
<feOffset dx="4" dy="2"/>
<feGaussianBlur stdDeviation="4"/>
<feComposite in2="hardAlpha" operator="out"/>
<feColorMatrix type="matrix" values="0 0 0 0 0 0 0 0 0 0 0 0 0 0 0 0 0 0 0.08 0"/>
<feBlend mode="normal" in2="BackgroundImageFix" result="effect1_dropShadow_8008_3065"/>
<feBlend mode="normal" in="SourceGraphic" in2="effect1_dropShadow_8008_3065" result="shape"/>
<feColorMatrix in="SourceAlpha" type="matrix" values="0 0 0 0 0 0 0 0 0 0 0 0 0 0 0 0 0 0 127 0" result="hardAlpha"/>
<feOffset/>
<feGaussianBlur stdDeviation="2"/>
<feComposite in2="hardAlpha" operator="arithmetic" k2="-1" k3="1"/>
<feColorMatrix type="matrix" values="0 0 0 0 0.744549 0 0 0 0 0.0509804 0 0 0 0 0.988235 0 0 0 0.32 0"/>
<feBlend mode="normal" in2="shape" result="effect2_innerShadow_8008_3065"/>
</filter>
<filter id="filter1_f_8008_3065" x="2.3999" y="4.51172" width="28" height="28" filterUnits="userSpaceOnUse" color-interpolation-filters="sRGB">
<feFlood flood-opacity="0" result="BackgroundImageFix"/>
<feBlend mode="normal" in="SourceGraphic" in2="BackgroundImageFix" result="shape"/>
<feGaussianBlur stdDeviation="3" result="effect1_foregroundBlur_8008_3065"/>
</filter>
<filter id="filter2_f_8008_3065" x="1.8999" y="18.0117" width="29.5" height="24.5" filterUnits="userSpaceOnUse" color-interpolation-filters="sRGB">
<feFlood flood-opacity="0" result="BackgroundImageFix"/>
<feBlend mode="normal" in="SourceGraphic" in2="BackgroundImageFix" result="shape"/>
<feGaussianBlur stdDeviation="4.5" result="effect1_foregroundBlur_8008_3065"/>
</filter>
<linearGradient id="paint0_linear_8008_3065" x1="4.3999" y1="6.51172" x2="28.3999" y2="30.5117" gradientUnits="userSpaceOnUse">
<stop stop-color="#F8FBFF"/>
<stop offset="1" stop-color="white" stop-opacity="0"/>
</linearGradient>
<radialGradient id="paint1_radial_8008_3065" cx="0" cy="0" r="1" gradientUnits="userSpaceOnUse" gradientTransform="translate(14.3999 22.0117) rotate(-55.3758) scale(12.7598)">
<stop stop-color="#B13589"/>
<stop offset="0.79309" stop-color="#C62F94"/>
<stop offset="1" stop-color="#8A3AC8"/>
</radialGradient>
<radialGradient id="paint2_radial_8008_3065" cx="0" cy="0" r="1" gradientUnits="userSpaceOnUse" gradientTransform="translate(13.8999 26.0117) rotate(-65.1363) scale(11.2971)">
<stop stop-color="#E0E8B7"/>
<stop offset="0.444662" stop-color="#FB8A2E"/>
<stop offset="0.71474" stop-color="#E2425C"/>
<stop offset="1" stop-color="#E2425C" stop-opacity="0"/>
</radialGradient>
<radialGradient id="paint3_radial_8008_3065" cx="0" cy="0" r="1" gradientUnits="userSpaceOnUse" gradientTransform="translate(8.6499 12.0117) rotate(-8.1301) scale(19.4454 4.15918)">
<stop offset="0.156701" stop-color="#406ADC"/>
<stop offset="0.467799" stop-color="#6A45BE"/>
<stop offset="1" stop-color="#6A45BE" stop-opacity="0"/>
</radialGradient>
<radialGradient id="paint4_radial_8008_3065" cx="0" cy="0" r="1" gradientUnits="userSpaceOnUse" gradientTransform="translate(14.3999 22.0117) rotate(-55.3758) scale(12.7598)">
<stop stop-color="#B13589"/>
<stop offset="0.79309" stop-color="#C62F94"/>
<stop offset="1" stop-color="#8A3AC8"/>
</radialGradient>
<radialGradient id="paint5_radial_8008_3065" cx="0" cy="0" r="1" gradientUnits="userSpaceOnUse" gradientTransform="translate(13.8999 26.0117) rotate(-65.1363) scale(11.2971)">
<stop stop-color="#E0E8B7"/>
<stop offset="0.444662" stop-color="#FB8A2E"/>
<stop offset="0.71474" stop-color="#E2425C"/>
<stop offset="1" stop-color="#E2425C" stop-opacity="0"/>
</radialGradient>
<radialGradient id="paint6_radial_8008_3065" cx="0" cy="0" r="1" gradientUnits="userSpaceOnUse" gradientTransform="translate(8.6499 12.0117) rotate(-8.1301) scale(19.4454 4.15918)">
<stop offset="0.156701" stop-color="#406ADC"/>
<stop offset="0.467799" stop-color="#6A45BE"/>
<stop offset="1" stop-color="#6A45BE" stop-opacity="0"/>
</radialGradient>
<linearGradient id="paint7_linear_8008_3065" x1="4.8999" y1="6.01172" x2="27.6499" y2="30.5117" gradientUnits="userSpaceOnUse">
<stop stop-color="#D8D8D8" stop-opacity="0.05"/>
<stop offset="1" stop-color="white" stop-opacity="0.4"/>
</linearGradient>
<clipPath id="clip0_8008_3065">
<rect x="4.3999" y="6.51172" width="24" height="24" rx="6" fill="white"/>
</clipPath>
</defs>
</svg>
