<svg width="19" height="19" viewBox="0 0 19 19" fill="none" xmlns="http://www.w3.org/2000/svg">
<path d="M9.99994 6.88907C10.4873 7.12176 10.9117 7.46801 11.2375 7.89875C11.5633 8.32948 11.781 8.83211 11.8723 9.36441C11.9635 9.89671 11.9257 10.4431 11.762 10.9578C11.5983 11.4725 11.3135 11.9403 10.9314 12.3221L7.55644 15.6971C6.9235 16.33 6.06505 16.6856 5.16994 16.6856C4.27483 16.6856 3.41638 16.33 2.78344 15.6971C2.1505 15.0641 1.79492 14.2057 1.79492 13.3106C1.79492 12.4155 2.1505 11.557 2.78344 10.9241L4.10119 9.60632M14.1137 9.13982L15.4314 7.82207C16.0644 7.18913 16.42 6.33068 16.42 5.43557C16.42 4.54046 16.0644 3.68201 15.4314 3.04907C14.7985 2.41613 13.9401 2.06055 13.0449 2.06055C12.1498 2.06055 11.2914 2.41613 10.6584 3.04907L7.28344 6.42407C6.90142 6.80582 6.61659 7.27368 6.45288 7.78833C6.28917 8.30299 6.25136 8.84942 6.34262 9.38173C6.43389 9.91403 6.65156 10.4167 6.97736 10.8474C7.30316 11.2781 7.72757 11.6244 8.21494 11.8571" stroke="#C7C7CC" stroke-width="0.92" stroke-linecap="round" stroke-linejoin="round"/>
</svg>
