<svg width="25" height="25" viewBox="0 0 25 25" fill="none" xmlns="http://www.w3.org/2000/svg">
<g clip-path="url(#clip0_8044_3881)">
<path d="M14.0235 8.31498C14.6734 8.62524 15.2392 9.08691 15.6736 9.66122C16.108 10.2355 16.3983 10.9057 16.52 11.6154C16.6416 12.3252 16.5912 13.0537 16.3729 13.74C16.1547 14.4262 15.7749 15.05 15.2655 15.559L10.7655 20.059C9.92161 20.9029 8.77701 21.377 7.58352 21.377C6.39004 21.377 5.24544 20.9029 4.40152 20.059C3.5576 19.2151 3.0835 18.0705 3.0835 16.877C3.0835 15.6835 3.5576 14.5389 4.40152 13.695L6.15852 11.938M19.5085 11.316L21.2655 9.55898C22.1094 8.71506 22.5836 7.57046 22.5836 6.37698C22.5836 5.1835 22.1094 4.0389 21.2655 3.19498C20.4216 2.35106 19.277 1.87695 18.0835 1.87695C16.89 1.87695 15.7454 2.35106 14.9015 3.19498L10.4015 7.69498C9.89216 8.20398 9.51239 8.82779 9.29411 9.514C9.07582 10.2002 9.02541 10.9288 9.14709 11.6385C9.26878 12.3483 9.55901 13.0184 9.99341 13.5927C10.4278 14.1671 10.9937 14.6287 11.6435 14.939" stroke="#8FAF3F" stroke-width="1.83472" stroke-linejoin="round"/>
</g>
<defs>
<clipPath id="clip0_8044_3881">
<rect width="24" height="24" fill="white" transform="translate(0.833496 0.0117188)"/>
</clipPath>
</defs>
</svg>
