<svg width="505" height="88" viewBox="0 0 505 88" fill="none" xmlns="http://www.w3.org/2000/svg">
<path d="M126.041 68L112.409 23.2H116.057L128.025 63.456L140.121 23.2H143.641L155.417 63.456L167.513 23.2H171.097L157.401 68H153.305L141.721 28.896L130.137 68H126.041ZM199.715 64.992H200.931V68H199.011C195.171 68 193.571 66.336 193.699 62.496V61.344C191.715 65.376 187.811 68.384 181.219 68.384C174.307 68.384 169.763 64.864 169.763 59.104C169.763 53.024 174.243 49.44 182.563 49.44H193.571V46.624C193.571 41.248 190.115 38.048 184.035 38.048C178.531 38.048 175.075 40.672 174.243 44.64H170.979C171.811 38.752 176.739 35.168 184.163 35.168C192.291 35.168 196.835 39.328 196.835 46.752V61.856C196.835 64.352 197.795 64.992 199.715 64.992ZM193.571 54.88V52.256H182.307C176.291 52.256 173.091 54.624 173.091 58.912C173.091 62.944 176.291 65.568 181.475 65.568C189.155 65.568 193.571 61.088 193.571 54.88ZM212.041 68L199.049 35.552H202.569L213.833 63.776L224.905 35.552H228.425L212.873 74.016C210.825 79.136 209.801 80.8 205.449 80.8H200.457V77.792H204.553C207.881 77.792 208.457 76.832 209.929 73.248L212.041 68Z" fill="#01B8EF"/>
<path d="M237.229 68H227.309L243.693 23.2H255.213L271.469 68H261.165L257.709 58.208H240.685L237.229 68ZM249.133 33.44L243.245 50.464H255.085L249.133 33.44ZM291.837 34.72C298.941 34.72 305.021 38.496 305.021 49.76V68H295.997V50.656C295.997 45.088 293.885 42.144 289.341 42.144C284.669 42.144 281.981 45.472 281.981 51.168V68H272.957V35.104H280.829L281.661 39.2C283.773 36.64 286.781 34.72 291.837 34.72ZM340.147 60.384H341.171V68H336.563C331.891 68 330.419 65.76 330.483 62.624C328.179 66.272 324.851 68.384 319.731 68.384C312.627 68.384 307.507 64.992 307.507 58.72C307.507 51.744 312.755 47.776 322.611 47.776H329.139V46.176C329.139 43.232 327.027 41.312 323.251 41.312C319.731 41.312 317.363 42.912 316.979 45.344H308.275C308.915 38.944 314.803 34.72 323.507 34.72C332.723 34.72 338.035 38.816 338.035 46.688V58.336C338.035 60.064 338.739 60.384 340.147 60.384ZM329.139 54.432V53.792H322.547C318.771 53.792 316.595 55.328 316.595 58.08C316.595 60.384 318.451 61.856 321.459 61.856C326.195 61.856 329.075 58.912 329.139 54.432ZM342.742 68V23.2H351.766V68H342.742ZM365.606 68.192L352.934 35.104H362.534L370.534 58.528L378.342 35.104H388.006L373.414 72.672C371.366 78.112 369.702 80.8 364.582 80.8H355.814V73.184H360.806C363.11 73.184 363.878 72.608 364.774 70.368L365.606 68.192ZM392.332 58.592V42.72H386.892V35.104H392.332V25.888H401.356V35.104H408.908V42.72H401.356V57.12C401.356 59.424 402.252 60.384 404.62 60.384H409.1V68H401.74C395.468 68 392.332 64.864 392.332 58.592ZM415.901 31.584C412.957 31.584 410.653 29.408 410.653 26.528C410.653 23.584 412.957 21.408 415.901 21.408C418.845 21.408 421.149 23.584 421.149 26.528C421.149 29.408 418.845 31.584 415.901 31.584ZM411.357 68V35.104H420.445V68H411.357ZM440.237 68.384C429.805 68.384 423.469 61.92 423.469 51.552C423.469 41.376 430.125 34.72 440.557 34.72C449.517 34.72 455.085 39.584 456.365 47.392H446.957C446.189 44.128 443.949 42.08 440.429 42.08C435.693 42.08 432.685 45.984 432.685 51.552C432.685 57.184 435.693 61.024 440.429 61.024C443.949 61.024 446.317 58.912 446.957 55.584H456.429C455.149 63.456 449.197 68.384 440.237 68.384ZM457.731 57.056H466.307C466.627 59.936 469.123 61.92 473.539 61.92C477.315 61.92 479.619 60.704 479.619 58.4C479.619 55.712 477.379 55.52 472.067 54.816C464.387 53.92 458.435 52.192 458.435 45.408C458.435 38.88 464.131 34.592 472.579 34.656C481.411 34.656 487.491 38.56 487.939 45.28H479.299C479.043 42.656 476.547 41.056 472.899 41.056C469.379 41.056 467.075 42.336 467.075 44.448C467.075 46.944 469.891 47.2 474.627 47.776C482.179 48.544 488.451 50.272 488.451 57.696C488.451 64.224 482.307 68.384 473.475 68.384C464.323 68.384 458.115 64.096 457.731 57.056Z" fill="#103564"/>
<mask id="path-2-inside-1_400_398" fill="white">
<path fill-rule="evenodd" clip-rule="evenodd" d="M33.61 57.2693L32.122 58.1235L30.1741 54.896L42.0782 48.0627L43.0018 51.5L33.61 57.2693ZM33.9627 25.1184L45.0331 33.233L42.7384 36.2239L31.668 28.1093L33.9627 25.1184Z"/>
</mask>
<path fill-rule="evenodd" clip-rule="evenodd" d="M33.61 57.2693L32.122 58.1235L30.1741 54.896L42.0782 48.0627L43.0018 51.5L33.61 57.2693ZM33.9627 25.1184L45.0331 33.233L42.7384 36.2239L31.668 28.1093L33.9627 25.1184Z" fill="white"/>
<path d="M33.61 57.2693L44.2306 75.7711L44.5059 75.613L44.7764 75.4469L33.61 57.2693ZM32.122 58.1235L13.8574 69.1469L24.6419 87.0156L42.7426 76.6252L32.122 58.1235ZM30.1741 54.896L19.5535 36.3943L0.641826 47.2502L11.9095 65.9194L30.1741 54.896ZM42.0782 48.0627L62.6806 42.5265L55.4896 15.7658L31.4576 29.561L42.0782 48.0627ZM43.0018 51.5L54.1682 69.6776L67.7368 61.3425L63.6043 45.9638L43.0018 51.5ZM33.9627 25.1184L46.5748 7.91237L29.7417 -4.42631L17.0371 12.1324L33.9627 25.1184ZM45.0331 33.233L61.9587 46.219L75.2324 28.9185L57.6452 16.027L45.0331 33.233ZM42.7384 36.2239L30.1264 53.4299L46.9595 65.7686L59.664 49.2099L42.7384 36.2239ZM31.668 28.1093L14.7424 15.1233L1.46871 32.4238L19.056 45.3153L31.668 28.1093ZM22.9894 38.7676L21.5014 39.6218L42.7426 76.6252L44.2306 75.7711L22.9894 38.7676ZM50.3866 47.1001L48.4387 43.8726L11.9095 65.9194L13.8574 69.1469L50.3866 47.1001ZM40.7947 73.3978L52.6987 66.5644L31.4576 29.561L19.5535 36.3943L40.7947 73.3978ZM21.4757 53.5989L22.3994 57.0362L63.6043 45.9638L62.6806 42.5265L21.4757 53.5989ZM31.8355 33.3224L22.4436 39.0918L44.7764 75.4469L54.1682 69.6776L31.8355 33.3224ZM21.3507 42.3244L32.4211 50.4391L57.6452 16.027L46.5748 7.91237L21.3507 42.3244ZM28.1076 20.247L25.8129 23.2379L59.664 49.2099L61.9587 46.219L28.1076 20.247ZM55.3505 19.0179L44.28 10.9032L19.056 45.3153L30.1264 53.4299L55.3505 19.0179ZM48.5936 41.0953L50.8883 38.1044L17.0371 12.1324L14.7424 15.1233L48.5936 41.0953Z" fill="#103564" mask="url(#path-2-inside-1_400_398)"/>
<circle cx="71.7633" cy="47.2809" r="29.8151" transform="rotate(-176.808 71.7633 47.2809)" stroke="#103564" stroke-width="3"/>
<circle cx="20.8063" cy="61.3008" r="11.8011" transform="rotate(-176.808 20.8063 61.3008)" stroke="#103564" stroke-width="3"/>
<circle cx="19.5989" cy="17.2596" r="14.8732" transform="rotate(-176.808 19.5989 17.2596)" stroke="#103564" stroke-width="3"/>
<path d="M59.9459 63L59.9459 58.005L71.9159 48.105C74.6609 45.855 76.3709 43.965 76.3709 41.4C76.3709 38.295 74.3459 36.675 71.4659 36.675C68.4509 36.675 66.3809 38.745 66.3809 42.165L66.3809 42.66L59.8559 42.66L59.8559 41.76C59.8559 35.82 64.3109 31.23 71.5109 31.23C78.8909 31.23 82.8959 35.235 82.8959 41.13C82.8959 45.765 80.3759 48.6 76.4159 51.795L69.3509 57.555L83.0759 57.555L83.0759 63L59.9459 63Z" fill="#01B8EF"/>
</svg>
