<svg width="19" height="19" viewBox="0 0 19 19" fill="none" xmlns="http://www.w3.org/2000/svg">
<path d="M7.30271 2.84953C7.37021 2.44303 7.72271 2.14453 8.13521 2.14453H10.08C10.4925 2.14453 10.845 2.44303 10.9125 2.84953L11.0722 3.81028C11.1195 4.09078 11.307 4.32478 11.556 4.46278C11.6115 4.49278 11.6662 4.52503 11.721 4.55803C11.9647 4.70503 12.261 4.75078 12.5272 4.65103L13.44 4.30903C13.627 4.23869 13.833 4.23702 14.0211 4.30432C14.2093 4.37162 14.3675 4.50352 14.4675 4.67653L15.4395 6.36178C15.5393 6.53481 15.5744 6.73763 15.5387 6.93416C15.503 7.13068 15.3987 7.30817 15.2445 7.43503L14.4922 8.05528C14.2725 8.23603 14.1637 8.51503 14.1697 8.79928C14.1708 8.86303 14.1708 8.92679 14.1697 8.99053C14.1637 9.27403 14.2725 9.55303 14.4922 9.73378L15.2452 10.354C15.5632 10.6165 15.6457 11.0703 15.4402 11.4265L14.4667 13.1118C14.3668 13.2848 14.2089 13.4167 14.0208 13.4841C13.8328 13.5516 13.627 13.5501 13.44 13.48L12.5272 13.138C12.261 13.0383 11.9647 13.084 11.7202 13.231C11.6658 13.2641 11.6108 13.2961 11.5552 13.327C11.307 13.4643 11.1195 13.6983 11.0722 13.9788L10.9125 14.9395C10.845 15.3468 10.4925 15.6445 10.08 15.6445H8.13446C7.72196 15.6445 7.37021 15.346 7.30196 14.9395L7.14221 13.9788C7.09571 13.6983 6.90821 13.4643 6.65921 13.3263C6.6036 13.2956 6.54859 13.2639 6.49421 13.231C6.25046 13.084 5.95421 13.0383 5.68721 13.138L4.77446 13.48C4.58751 13.5502 4.38173 13.5517 4.19373 13.4845C4.00573 13.4172 3.84769 13.2854 3.74771 13.1125L2.77496 11.4273C2.67517 11.2543 2.64 11.0514 2.6757 10.8549C2.71141 10.6584 2.81568 10.4809 2.96996 10.354L3.72296 9.73378C3.94196 9.55378 4.05071 9.27403 4.04546 8.99053C4.04429 8.92679 4.04429 8.86303 4.04546 8.79928C4.05071 8.51428 3.94196 8.23603 3.72296 8.05528L2.96996 7.43503C2.81586 7.3082 2.71172 7.13086 2.67601 6.9345C2.64031 6.73814 2.67537 6.53548 2.77496 6.36253L3.74771 4.67728C3.8476 4.50413 4.00572 4.37207 4.19389 4.30463C4.38207 4.23719 4.58808 4.23875 4.77521 4.30903L5.68721 4.65103C5.95421 4.75078 6.25046 4.70503 6.49421 4.55803C6.54821 4.52503 6.60371 4.49353 6.65921 4.46203C6.90821 4.32478 7.09571 4.09078 7.14221 3.81028L7.30271 2.84953Z" stroke="#C7C7CC" stroke-width="0.92" stroke-linecap="round" stroke-linejoin="round"/>
<path d="M11.3574 8.89453C11.3574 9.49127 11.1204 10.0636 10.6984 10.4855C10.2765 10.9075 9.70416 11.1445 9.10742 11.1445C8.51068 11.1445 7.93839 10.9075 7.51643 10.4855C7.09447 10.0636 6.85742 9.49127 6.85742 8.89453C6.85742 8.29779 7.09447 7.7255 7.51643 7.30354C7.93839 6.88158 8.51068 6.64453 9.10742 6.64453C9.70416 6.64453 10.2765 6.88158 10.6984 7.30354C11.1204 7.7255 11.3574 8.29779 11.3574 8.89453Z" stroke="#C7C7CC" stroke-width="0.92" stroke-linecap="round" stroke-linejoin="round"/>
</svg>
