<svg width="19" height="19" viewBox="0 0 19 19" fill="none" xmlns="http://www.w3.org/2000/svg">
<path d="M11.9201 4.91504C11.9201 5.66096 11.6238 6.37633 11.0964 6.90378C10.5689 7.43122 9.85357 7.72754 9.10765 7.72754C8.36173 7.72754 7.64636 7.43122 7.11891 6.90378C6.59146 6.37633 6.29515 5.66096 6.29515 4.91504C6.29515 4.16912 6.59146 3.45375 7.11891 2.9263C7.64636 2.39886 8.36173 2.10254 9.10765 2.10254C9.85357 2.10254 10.5689 2.39886 11.0964 2.9263C11.6238 3.45375 11.9201 4.16912 11.9201 4.91504ZM3.4834 15.5035C3.5075 14.0278 4.11065 12.6207 5.16278 11.5856C6.21491 10.5505 7.63171 9.97039 9.10765 9.97039C10.5836 9.97039 12.0004 10.5505 13.0525 11.5856C14.1046 12.6207 14.7078 14.0278 14.7319 15.5035C12.9674 16.3126 11.0488 16.7302 9.10765 16.7275C7.10065 16.7275 5.19565 16.2895 3.4834 15.5035Z" stroke="#C7C7CC" stroke-width="0.8" stroke-linecap="round" stroke-linejoin="round"/>
</svg>
