<svg width="25" height="25" viewBox="0 0 25 25" fill="none" xmlns="http://www.w3.org/2000/svg">
<path d="M2.86963 12.3337C2.80062 12.1263 2.80062 11.9021 2.86963 11.6947C4.25663 7.52172 8.19363 4.51172 12.8336 4.51172C17.4716 4.51172 21.4066 7.51872 22.7966 11.6897C22.8666 11.8967 22.8666 12.1207 22.7966 12.3287C21.4106 16.5017 17.4736 19.5117 12.8336 19.5117C8.19563 19.5117 4.25963 16.5047 2.86963 12.3337Z" stroke="#52B6EA" stroke-width="1.5" stroke-linecap="round" stroke-linejoin="round"/>
<path d="M15.8335 12.0117C15.8335 12.8074 15.5174 13.5704 14.9548 14.133C14.3922 14.6956 13.6291 15.0117 12.8335 15.0117C12.0378 15.0117 11.2748 14.6956 10.7122 14.133C10.1496 13.5704 9.8335 12.8074 9.8335 12.0117C9.8335 11.2161 10.1496 10.453 10.7122 9.8904C11.2748 9.32779 12.0378 9.01172 12.8335 9.01172C13.6291 9.01172 14.3922 9.32779 14.9548 9.8904C15.5174 10.453 15.8335 11.2161 15.8335 12.0117Z" stroke="#52B6EA" stroke-width="1.5" stroke-linecap="round" stroke-linejoin="round"/>
</svg>
